<?xml version='1.0' encoding='utf-8'?>
<svg xmlns="http://www.w3.org/2000/svg" version="1.1" width="1080px" height="2132px" viewBox="0 0 1080 2132"> <g id="layer1"> <g style="fill:rgb(212,247,255); fill-opacity:1.0; stroke-linejoin: miter"> <path d="M124.999,700.5844C124.88904,700.5844,124.78358,700.62805,124.70582,700.7058C124.62806,700.78357,124.58438,700.88904,124.58438,700.999L124.58538,1167.0C124.58538,1167.229,124.77101,1167.4147,125.0,1167.4147L776.001,1167.4156C776.11096,1167.4156,776.21643,1167.372,776.2942,1167.2942C776.37195,1167.2164,776.4156,1167.111,776.4156,1167.001L776.4146,701.0C776.4146,700.771,776.229,700.5854,776.0,700.5854L124.999,700.5844 Z"/> </g> <g style="fill:rgb(0,0,0); fill-opacity:1.0; stroke-linejoin: miter"> <path d="M628.6141,947.6207L628.6141,947.6207L634.8574,958.13806Q631.9924,959.08344,629.1274,960.02875L628.6141,947.6207"/> </g> <g style="fill:rgb(220,229,235); fill-opacity:1.0; stroke-linejoin: miter"> <path d="M200.28918,906.1728L200.28918,906.174L354.61945,954.20337Q430.7139,927.0981,506.8083,899.99255L356.65424,993.4161L200.28918,906.1728"/> </g> <g style="fill:rgb(15,59,82); fill-opacity:0.99607843; stroke-linejoin: miter"> <path d="M420.132,838.88654L420.13205,838.88666L420.13205,838.8868L420.13205,838.88666L420.132,838.88654L420.13205,838.88666L420.13205,838.8868Q420.13205,838.88666,420.132,838.88654"/> </g> <g style="fill:rgb(15,59,82); fill-opacity:0.99607843; stroke-linejoin: miter"> <path d="M417.62735,920.3821L417.62747,920.3827L417.62747,920.3823L417.62735,920.3821L417.62747,920.3827L417.62735,920.3821L417.62747,920.3823Q417.62735,920.3821,417.62735,920.3821"/> </g> <g style="fill:rgb(0,0,0); fill-opacity:1.0; stroke-linejoin: miter"> <path d="M407.6729,866.949Q405.4006,867.32196,404.26425,868.7265Q404.07834,868.8604,402.68436,871.05615Q400.78174,873.19794,400.71185,873.4959Q400.1162,874.53174,400.18597,875.7879Q400.52615,879.8649,403.64365,884.2641Q404.3112,885.1927,405.12582,886.14825L408.44852,887.2688Q412.8545,882.37396,414.0476,879.5749Q414.6831,878.18713,415.03302,876.4207Q415.27344,875.41486,415.61197,871.6918Q415.68735,871.1174,415.8123,870.6294Q416.08334,869.481,416.90604,868.5639Q416.11945,867.2721,413.96088,866.9468Q410.68054,866.4558,407.68262,866.94745"/> </g> <g style="fill:rgb(254,185,154); fill-opacity:1.0; stroke-linejoin: miter"> <path d="M448.921,893.5031Q448.32132,893.8588,447.88718,894.5758Q447.47177,895.21826,446.6686,897.1303L445.20554,898.0385L447.30673,901.6454Q449.2775,901.45483,449.95694,901.0987Q450.63364,900.8009,451.1064,899.7578Q452.3301,900.0907,452.88217,899.7117Q453.68002,899.2656,454.139,897.1505Q454.5782,894.83636,454.0769,893.9575Q453.8227,893.5552,453.297,893.5115Q452.8258,893.45776,451.75885,893.75714Q452.59222,893.2139,452.5357,892.90906Q452.41467,892.3956,451.6726,892.2811Q451.32343,892.23645,450.80695,892.4667Q450.64514,892.53845,450.4179,892.6633L448.9216,893.50256"/> </g> <g style="fill:rgb(255,255,255); fill-opacity:1.0; stroke-linejoin: miter"> <path d="M445.3599,897.8245L444.10056,898.4968L446.26562,904.75684Q447.54022,904.5534,447.92285,904.2338Q448.39847,903.87634,448.30917,903.213Q448.22702,902.5502,447.54752,901.31055Q446.98788,900.26526,445.36325,897.8294"/> </g> <g style="fill:rgb(0,0,0); fill-opacity:1.0; stroke-linejoin: miter"> <path d="M393.0544,909.74725L393.05325,909.75604Q392.06964,917.3141,391.6463,917.6683Q391.64203,917.672,391.63776,917.6749Q391.43262,917.8205,391.28168,916.3747Q391.14526,915.1635,390.97855,911.3193L393.0544,909.74725 Z M395.68237,887.18524Q395.27612,887.4731,394.9416,887.87756Q394.9303,887.88416,394.91913,887.8923Q394.346,888.29865,393.32977,891.7748Q392.81604,892.81555,392.08035,893.7042Q382.38263,903.0192,382.1597,903.92236Q380.04865,906.7865,380.26788,909.7294Q380.34497,911.2049,380.86212,913.0933L385.41742,928.97974Q386.26727,931.41406,387.91937,930.24286Q388.35736,929.9328,388.8515,929.36896L388.852,929.36896L386.95,941.6041L389.5867,942.189Q390.38745,944.2058,391.747,946.3183Q398.6138,955.9425,398.5793,956.18195Q399.80386,958.15137,401.3068,961.4297L387.6758,964.22644Q385.31015,963.1443,380.13953,963.4681Q378.8551,967.1916,380.76053,972.0085Q381.70908,974.6652,384.32,980.2792Q399.577,976.2122,412.70633,974.3025Q415.1508,973.77155,416.42435,972.99835Q416.59903,972.89935,416.75833,972.78656Q418.6315,971.4586,418.33258,968.2594Q418.23163,965.23047,414.89,951.2215L425.76202,954.3354L432.71326,984.9988L432.85876,984.99536L446.66827,979.5436L439.55133,949.5727Q438.4912,945.92566,435.5605,943.5053Q432.86267,941.108,424.27972,936.7317L424.28027,936.73193L426.02594,935.67426L413.96664,924.08044L418.7611,910.54565Q428.26566,913.0194,433.09207,912.0664Q435.38004,911.68805,438.21466,910.50354Q448.11496,905.40546,448.99075,905.3665L444.6802,897.70245L430.7364,903.09375L421.3836,899.62494Q419.69012,894.62274,415.59647,889.5401L404.7966,885.2618L403.4703,887.45306Q398.81506,886.1819,397.276,886.54236L397.20062,886.55505Q396.34607,886.7147,395.68237,887.18524 Z"/> </g> <g style="fill:rgb(255,255,255); fill-opacity:1.0; stroke-linejoin: miter"> <path d="M410.2352,886.11975Q408.91904,885.59625,406.56833,885.2032L406.35086,885.97797Q408.16495,886.82007,409.50418,888.3867Q411.06036,890.1685,412.97723,893.5373Q416.32166,899.3132,417.00754,904.86865Q418.586,901.5645,418.87366,899.7498Q419.19885,898.02844,418.45496,896.0521Q418.27136,895.5421,417.99988,894.9308L416.5857,891.9243Q416.19324,891.06134,415.48044,889.34216Q412.02213,886.74774,410.25388,886.12695"/> </g> <g style="fill:rgb(254,185,154); fill-opacity:1.0; stroke-linejoin: miter"> <path d="M415.5576,870.34106Q413.18326,871.7412,413.04642,872.5705Q412.82425,873.2401,413.63544,874.5944L412.68524,876.3708L413.21582,878.78754L412.10284,879.32245Q410.75354,877.64325,410.25323,877.3973Q409.65295,877.0624,409.13287,877.6588Q408.49988,878.3726,408.46082,879.1696Q408.40094,879.6818,409.1186,880.9661Q409.18317,881.2286,409.07523,881.5595Q409.0004,882.1185,406.6486,885.6778L415.30154,889.8257L417.25687,886.99963L418.93753,885.7771Q421.20877,885.5377,421.46365,884.97614Q421.83987,884.4828,420.59204,882.6625Q420.8357,881.49567,420.66638,881.189Q420.51978,880.80554,419.68665,880.6442Q420.54333,880.2393,420.56738,879.86707Q420.66125,879.49274,420.02106,878.4327Q421.5221,877.77155,421.26825,877.36194Q421.18854,877.13934,420.70612,876.7996L418.35254,875.2972L418.06705,874.7102Q418.08975,873.8362,417.64444,873.09735Q417.2532,872.36945,415.5649,870.35004"/> </g> <g style="fill:rgb(0,0,0); fill-opacity:1.0; stroke-linejoin: miter"> <path d="M433.06262,984.43384L432.8694,986.4443L431.9293,986.5788Q432.06448,988.1994,432.2582,989.0519Q432.55167,991.08844,435.2344,994.4152L442.32852,989.98004L441.49716,988.5927Q445.8385,987.31854,447.88177,986.41174Q450.23853,985.3977,451.92462,984.0829Q455.7112,981.027,455.45084,978.8981Q455.11496,977.7316,453.59537,978.1667Q453.12527,978.3049,452.37173,978.7298Q452.34378,978.7167,449.6596,980.3994Q449.03217,980.7746,448.49158,981.0431Q447.2926,981.6445,446.34485,981.7443Q444.28943,981.9752,442.03403,980.32874L433.09827,984.4176"/> </g> <g style="fill:rgb(0,0,0); fill-opacity:1.0; stroke-linejoin: miter"> <path d="M375.67767,961.2431Q374.36792,961.233,373.3941,963.19183Q372.82547,964.2474,371.81528,967.11664L372.8194,967.4152Q369.08862,972.0666,368.2327,975.61383Q367.31793,979.19977,367.57498,983.19904Q367.77902,986.16144,369.07828,985.9359Q370.9646,985.8767,371.41974,985.24524Q371.71136,984.9374,371.94983,984.4392Q373.12537,981.64386,373.413,981.1967Q373.88614,980.3157,374.54935,979.5122Q375.13602,978.7945,376.01627,977.9488Q380.3583,974.1074,381.9512,972.3949L381.1944,963.3775Q376.91547,961.0959,375.6917,961.2423"/> </g> <g style="fill:rgb(0,0,0); fill-opacity:1.0; stroke-linejoin: miter"> <path d="M415.04037,889.9222L414.5249,892.8878L416.34595,893.58923Q417.5055,895.31964,417.6012,896.83624Q417.7022,897.82825,417.43182,899.42865L417.15765,900.8385L416.4523,903.8451Q416.32718,904.4032,416.28622,904.71173Q416.18063,905.4029,416.41672,905.5152Q416.71243,905.6559,417.808,905.03925Q418.5164,904.5934,418.9346,903.9321Q419.72305,902.7148,419.51605,900.64777Q419.16223,897.2497,417.31555,892.51117Q416.7917,891.2329,416.19153,890.46875L415.0441,889.9241"/> </g> <g style="fill:rgb(250,87,87); fill-opacity:0.07450981; stroke-linejoin: miter"> <path d="M413.77994,884.3274L415.15976,889.7894L418.65152,885.7935Q416.70718,885.5936,415.7853,885.2997Q414.90848,885.036,413.7841,884.32996"/> </g> <g style="fill:rgb(0,0,0); fill-opacity:0.99607843; stroke-linejoin: miter"> <path d="M417.90067,871.7387L417.9008,871.7393L417.90073,871.7391L417.90067,871.7387"/> </g> <g style="fill:rgb(0,0,0); fill-opacity:0.99607843; stroke-linejoin: miter"> <path d="M400.15564,886.77454L400.1557,886.7748L400.15576,886.7749L400.15564,886.77454"/> </g> <g style="fill:rgb(3,134,153); fill-opacity:0.21568628; stroke-linejoin: miter"> <path d="M751.3046,1004.22095L748.6988,1010.10675Q735.2737,1019.70233,728.3359,1021.20966Q718.8907,1024.6534,705.90137,1027.7544Q679.923,1033.9557,639.7689,1038.7852Q619.55316,1041.1978,597.74005,1042.9897Q587.83167,1044.2743,528.70593,1046.9674Q480.28745,1048.6873,425.47943,1047.922Q362.12958,1046.0404,352.25082,1045.0162Q329.58582,1043.6417,309.2468,1041.7273Q268.56857,1037.8986,237.19455,1031.9083Q167.14423,1017.4013,178.97107,1001.5511Q184.16739,993.66144,204.75443,986.95685Q215.04782,983.6048,229.189,980.54926Q234.08273,978.8012,279.81415,972.11896Q355.8188,962.2333,464.21838,961.5657Q530.20013,962.17694,540.9702,963.0019Q565.0375,963.91986,587.0828,965.4235Q631.17365,968.43024,667.17725,973.77936Q685.1787,976.4545,699.3337,979.44293Q731.35657,987.1914,733.1457,989.1183Q749.91754,996.04065,751.3046,1004.22095"/> </g> <g style="fill:rgb(3,134,153); fill-opacity:0.21568628; stroke-linejoin: miter"> <path d="M709.57227,1004.3545L707.3388,1009.3991Q691.41034,1024.6676,613.97205,1033.9806Q535.99786,1043.2876,430.29874,1041.8119Q329.4207,1039.6387,268.91464,1028.086Q249.52771,1024.3511,236.97208,1019.92267L226.41757,1015.3641Q217.71735,1010.6541,217.60748,1005.51166Q220.20807,989.7236,289.59247,979.0806Q358.9768,968.4375,463.503,967.7936Q568.0308,967.946,637.4643,978.2623Q706.8974,988.5786,709.57227,1004.3545"/> </g> <g style="fill:rgb(0,0,0); fill-opacity:1.0; stroke-linejoin: miter"> <path d="M426.32635,993.04987L433.12308,992.1122Q433.32553,994.8446,433.5793,995.8734Q433.68307,996.3323,433.86563,996.8008L434.55026,998.35846Q434.6912,998.757,434.73264,999.1002Q434.93967,1000.7102,433.15833,1001.3667Q432.34857,1001.79675,427.31662,1002.82074Q426.2889,1003.0502,425.9636,1002.767Q425.39487,1002.3484,425.41238,1000.4282Q425.43472,999.89087,425.53152,999.5779Q425.5762,999.42834,425.64615,999.29333L425.98477,998.7441Q426.06393,998.6033,426.13333,998.41174Q426.29858,997.9491,426.4032,997.12146Q426.6294,995.39954,426.3271,993.05585 Z"/> </g> <g style="fill:rgb(0,0,0); fill-opacity:1.0; stroke-linejoin: miter"> <path d="M411.23114,994.06885L421.56757,992.75836Q422.17078,993.86694,422.4968,995.22845Q422.6544,995.6683,423.46567,1000.5427L417.602,1002.21173L416.2492,1001.50916Q415.28088,1001.92053,414.4636,1002.32733Q410.4066,1004.4769,409.7254,1004.7344Q407.92664,1005.5393,406.4156,1005.8918Q402.60483,1006.6702,400.5129,1005.8677Q399.64145,1005.3831,400.68826,1004.5012Q401.08365,1004.1772,401.71872,1003.85913Q401.95218,1003.7241,403.79382,1002.9524Q404.23486,1002.7522,404.48206,1002.6098Q405.07312,1002.284,405.56653,1001.7373L411.2193,994.08496 Z"/> </g> <g style="fill:rgb(165,179,188); fill-opacity:1.0; stroke-linejoin: miter"> <path d="M313.01227,955.50916L313.01227,955.50977L354.32245,914.3727Q376.28516,934.8959,398.24774,955.41895Q376.63605,970.56213,355.02396,985.7056L313.01227,955.50916"/> </g> <g style="fill:rgb(146,159,168); fill-opacity:1.0; stroke-linejoin: miter"> <path d="M250.374,929.14233L250.374,929.1428L250.374,929.14233L250.374,929.14294L250.374,929.1428L250.374,929.14233L250.374,929.14294Q250.374,929.14233,250.374,929.14233 Z"/> </g> <g style="fill:rgb(125,139,150); fill-opacity:1.0; stroke-linejoin: miter"> <path d="M508.16156,898.87964L449.17926,1005.9108L262.77908,1010.6507L200.01053,906.2454L355.1186,970.25366L508.16156,898.87964"/> </g> <g style="fill:rgb(60,70,79); fill-opacity:1.0; stroke-linejoin: miter"> <path d="M355.082,970.2366L309.04984,990.4194L263.01736,1010.6026Q356.71786,1008.35187,450.41833,1006.10114L355.082,970.2366"/> </g> <g style="fill:rgb(60,70,79); fill-opacity:1.0; stroke-linejoin: miter"> <path d="M354.0748,914.6846L354.20294,916.8131Q354.51923,922.2024,354.57248,923.4247Q354.68964,925.7223,354.7913,928.2457L354.8876,930.8478Q354.9796,933.5177,355.04688,936.5481L355.10703,939.6909Q355.16016,942.93567,355.17984,946.676Q355.1987,950.432,355.18414,954.68335Q355.1933,956.56714,355.08023,968.3286Q354.95306,980.3047,354.53696,1004.639L354.0748,914.6846"/> </g> <g style="fill:rgb(3,134,153); fill-opacity:1.0; stroke-linejoin: miter"> <path d="M237.16278,966.0987L441.93704,982.813L646.71094,999.5261L237.16278,966.0987"/> </g> <g style="fill:rgb(3,134,153); fill-opacity:1.0; stroke-linejoin: miter"> <path d="M252.83124,1013.15594L252.83124,1013.15594Q279.8455,1005.7767,287.24457,1004.51764Q296.7435,1002.75665,298.21347,1002.7259Q302.06357,1002.27496,305.47696,1002.2541L308.32455,1002.3067Q311.06607,1002.43585,313.49033,1002.76495L326.68823,1005.0612Q328.22778,1005.3488,332.19553,1005.4478Q335.58255,1005.4367,339.8195,1004.90424Q341.6688,1004.71515,352.98126,1002.96295Q358.83514,1002.16705,360.08807,1002.092L363.00336,1001.852Q366.01053,1001.65155,369.1248,1001.6141L372.2748,1001.607Q375.4561,1001.6348,378.7978,1001.7614L400.7837,1002.8134Q402.62225,1002.9379,413.54486,1003.1595Q426.57263,1003.4432,462.32996,1002.8232L503.4206,1007.0711L252.83124,1013.15594"/> </g> <g style="fill:rgb(253,217,8); fill-opacity:1.0; stroke-linejoin: miter"> <path d="M634.9268,955.9121L634.5316,955.914Q613.3904,957.1469,603.5363,974.5944Q594.6441,992.416,603.9721,1009.6909L604.58386,1010.7361L665.57764,1010.7359Q675.86975,993.24646,666.4266,974.2594Q655.166,956.1563,634.9268,955.9121 Z"/> </g> <g style="fill:rgb(238,170,1); fill-opacity:1.0; stroke-linejoin: miter"> <path d="M634.9293,961.4386L634.5959,961.4401Q631.9423,961.39124,629.07135,962.0502Q627.5291,962.09906,621.4247,964.6487Q614.35394,968.1422,609.79926,974.9718Q600.9993,989.07965,607.70575,1004.63214Q608.5223,1006.7394,611.4691,1010.7362L658.6299,1010.736Q669.794,995.8163,662.32275,978.49493Q657.999,969.9027,650.1075,965.4107Q646.1728,963.141,641.7788,962.1681Q636.18567,961.23596,634.9293,961.4386 Z"/> </g> <g style="fill:rgb(255,183,13); fill-opacity:1.0; stroke-linejoin: miter"> <path d="M634.9298,962.16675L634.60455,962.16833Q632.01575,962.12054,629.21497,962.76337Q627.7105,962.81104,621.7552,965.2985Q614.85724,968.7067,610.4138,975.3693Q601.7683,989.00366,608.4929,1004.56226Q609.3389,1006.71124,612.43225,1010.73566L657.6614,1010.73596Q660.51245,1007.42664,662.6041,1002.40906Q664.53296,996.44165,664.3974,995.11865Q664.6972,988.74646,664.23584,987.34247Q663.5821,982.73596,661.65375,978.8065Q657.4357,970.4239,649.737,966.0418Q645.89844,963.8275,641.6119,962.8785Q636.1556,961.9691,634.9298,962.16675 Z"/> </g> <g style="fill:rgb(238,170,1); fill-opacity:1.0; stroke-linejoin: miter"> <path d="M628.72394,976.4361L629.41016,979.4035Q627.1656,980.99567,626.12744,983.5686Q625.08954,986.14154,625.74506,988.97614Q626.165,990.79205,627.2525,992.2667Q628.32983,993.69727,629.8022,994.6166Q631.27454,995.5359,633.07715,995.8655Q634.8354,996.2054,636.6513,995.7855L636.917,995.7243Q637.4689,995.6897,637.9154,996.00635Q638.36194,996.32294,638.4951,996.89874Q638.6385,997.5189,638.298,998.06415Q637.9575,998.60944,637.3374,998.7528Q636.7174,998.8962,636.17206,998.5557Q635.62683,998.2154,635.4834,997.59534L628.1316,999.29584Q628.4592,1000.7127,629.1991,1001.8946Q629.88446,1003.04266,630.89343,1003.97565Q631.84784,1004.8748,633.06116,1005.4807Q634.26416,1006.0424,635.61694,1006.24286L636.39526,1009.60876L643.8359,1007.8883L642.9653,1004.12354Q644.8248,1002.48047,645.62787,1000.10175Q646.44104,997.7675,645.847,995.19867Q645.4271,993.3829,644.3395,991.90796Q643.26215,990.47736,641.78986,989.5582Q640.3175,988.63885,638.51495,988.30927Q636.75665,987.96936,634.9408,988.3893L634.67523,988.45105Q634.12317,988.485,633.6665,988.1242Q633.21985,987.8074,633.0969,987.276Q632.95355,986.65594,633.28375,986.0662Q633.6243,985.52106,634.2443,985.3776Q634.8644,985.23425,635.4199,985.619Q635.96533,985.95953,636.1087,986.5795L643.46075,984.8796Q642.8665,982.3105,641.1009,980.5261Q639.3351,978.74146,636.9428,978.0815L636.1644,974.7155 Z"/> </g> <g style="fill:rgb(253,217,8); fill-opacity:1.0; stroke-linejoin: miter"> <path d="M628.1868,976.95215L628.87305,979.91956Q626.6284,981.51184,625.59045,984.08466Q624.5524,986.65765,625.2079,989.4921Q625.62787,991.30804,626.7154,992.78296Q627.7926,994.21326,629.265,995.13257Q630.7374,996.05194,632.54,996.38153Q634.2982,996.72144,636.11414,996.3014L636.3799,996.2403Q636.9318,996.20575,637.3783,996.52246Q637.8248,996.8392,637.95795,997.415Q638.1013,998.0349,637.7608,998.58026Q637.4204,999.1256,636.80035,999.269Q636.1803,999.4124,635.635,999.0719Q635.0896,998.7313,634.9463,998.1114L627.5944,999.81177Q627.92206,1001.2287,628.6619,1002.4107Q629.3473,1003.55865,630.3563,1004.4917Q631.3108,1005.39087,632.524,1005.9968Q633.727,1006.5585,635.0798,1006.7588L635.8582,1010.1248L643.2988,1008.4044L642.4281,1004.6395Q644.28766,1002.9964,645.0908,1000.6179Q645.90393,998.2835,645.30994,995.71484Q644.88995,993.89886,643.8023,992.42395Q642.7251,990.99347,641.2527,990.07416Q639.78033,989.1548,637.9778,988.82526Q636.21954,988.48553,634.40375,988.9054L634.13806,988.967Q633.586,989.00104,633.1292,988.6402Q632.6827,988.3234,632.5598,987.79193Q632.4164,987.1719,632.7467,986.5824Q633.08716,986.037,633.7072,985.8937Q634.3272,985.7502,634.8828,986.13513Q635.4281,986.47546,635.5715,987.0955L642.9235,985.3955Q642.3295,982.82666,640.5637,981.04205Q638.798,979.2576,636.4058,978.5976L635.6273,975.23157 Z"/> </g> <g style="fill:rgb(0,0,0); fill-opacity:1.0; stroke-linejoin: miter"> <path d="M377.39972,946.07227L377.39972,946.07227L377.39972,946.0725L374.97836,944.77094L534.77747,836.95166C535.4882,836.47186,536.4535,836.6594,536.9332,837.3705C537.41284,838.08124,537.22534,839.04645,536.51447,839.52625L536.51447,839.52625L376.71542,947.34576C376.23734,947.6683,375.61972,947.69934,375.11172,947.4263C374.60364,947.1532,374.2888,946.6209,374.2941,946.0441L374.2941,946.0441L374.2941,946.0439C374.30197,945.1863,375.00354,944.4973,375.86118,944.5053C376.71878,944.5132,377.40765,945.21466,377.39972,946.07227 Z"/> </g> <g style="fill:rgb(254,185,154); fill-opacity:1.0; stroke-linejoin: miter"> <path d="M389.24384,927.38116Q389.60565,930.8905,389.8634,931.90265Q389.97388,932.3759,390.12354,932.7163Q390.1756,932.8716,390.5818,933.5558Q390.65808,933.7014,390.71515,933.86566Q390.76477,934.0053,390.81458,934.23773Q391.0162,935.35345,391.0602,935.47614Q391.16403,935.8758,391.29703,936.1029Q391.50217,936.46124,391.8547,936.55817Q392.2405,936.65796,392.57742,936.4584Q392.5981,936.445,392.61783,936.43115Q393.152,936.0525,392.9086,935.10236Q392.77982,934.5554,392.438,933.8088L392.43848,933.80927Q392.6145,933.82715,392.7589,933.8333L392.7589,933.83356Q392.88208,934.0136,392.99515,934.2158Q393.06363,934.3388,393.12436,934.4612L393.39456,935.0202Q393.46152,935.1519,393.5198,935.24994Q393.57773,935.34705,393.63174,935.4173L393.63162,935.4177Q393.73074,936.0359,393.8024,936.36523Q393.9114,936.8851,394.0439,937.2456Q394.30673,937.9679,394.73074,938.1349Q395.0645,938.2754,395.4594,938.1514Q395.64606,938.0869,395.7932,937.9825Q395.92072,937.8923,396.01855,937.77234L396.01898,937.7724Q396.1618,938.57574,396.38947,938.8177Q396.56598,939.034,396.8404,939.0632Q397.1208,939.08966,397.39642,938.91797Q397.41614,938.9052,397.435,938.8918Q397.8758,938.57904,398.02386,937.88794Q398.0788,937.64294,398.10815,937.3368L398.10864,937.3369Q398.73303,937.379,399.0866,937.12885Q399.24908,937.0136,399.35443,936.8366Q399.8288,936.064,399.71967,934.6951Q399.64972,933.067,397.86234,930.20514L397.86203,930.2053Q397.98972,930.079,398.0582,929.9275L398.05887,929.928Q400.1531,930.8846,400.9636,930.87195Q401.54898,930.8879,401.93686,930.6132Q401.99606,930.5713,402.05026,930.52264Q402.47562,930.089,402.223,929.71826Q402.10062,929.5621,401.7806,929.46027L401.48532,929.3774Q400.64584,929.18634,400.5319,929.151Q400.22665,929.0694,399.95657,928.9688Q399.5054,928.79926,399.1534,928.56696Q398.10495,927.8827,396.97,926.29724L396.96872,926.2954L396.97513,926.3787L396.97525,926.3788Q396.84323,926.26764,396.6951,926.20966Q396.14725,925.95276,394.6791,926.1976Q393.40665,926.3834,389.25763,927.4008L389.255,927.4019L389.25568,927.4032L389.2558,927.40344L389.24658,927.385L389.2442,927.38104 Z"/> </g> <g style="fill:rgb(0,0,0); fill-opacity:1.0; stroke-linejoin: miter"> <path d="M451.87045,895.44135L451.87045,895.44135L451.87045,895.44147L450.74872,893.94965L455.35187,895.28C456.17578,895.5181,456.65067,896.3791,456.41254,897.203C456.1744,898.0269,455.31345,898.50183,454.48953,898.2637L454.48953,898.2637L449.88638,896.9333C449.222,896.7413,448.76465,896.13306,448.76465,895.44147L448.76465,895.44147L448.76465,895.44135C448.76465,894.58374,449.4599,893.8885,450.31757,893.8885C451.1752,893.8885,451.87045,894.58374,451.87045,895.44135 Z"/> </g> <g style="fill:rgb(0,0,0); fill-opacity:1.0; stroke-linejoin: miter"> <path d="M534.5371,836.8164L534.5371,836.8164L535.74536,838.3534C535.85187,838.4889,535.89935,838.6616,535.8772,838.8325C535.85504,839.0034,535.765,839.1582,535.62744,839.262L535.62744,839.262C521.50616,849.9196,507.3667,860.59106,493.45743,870.20355L493.45743,870.20355C479.54422,879.8188,465.86334,888.3737,452.19275,896.9225C451.8923,897.11035,451.49643,897.01917,451.30856,896.7187C451.1207,896.4182,451.21194,896.02234,451.5124,895.8345L451.5124,895.8345C465.18802,887.2826,478.84094,878.74493,492.72787,869.1479L492.72787,869.1479C506.60965,859.5544,520.7304,848.8976,534.8545,838.23785L534.7366,839.1465L533.5283,837.6095C533.3093,837.33093,533.3576,836.92755,533.63617,836.70856C533.91473,836.48956,534.3181,836.53784,534.5371,836.8164 Z"/> </g> <g style="fill:rgb(0,0,0); fill-opacity:1.0; stroke-linejoin: miter"> <path d="M534.93445,838.6065L534.93445,838.6065L535.237,838.2139C535.3603,838.05396,535.55164,837.9614,535.75354,837.96405C535.95544,837.9667,536.14435,838.0643,536.2634,838.22736L536.2634,838.22736L631.769,969.07733C631.9779,969.3635,631.91516,969.7649,631.62897,969.9738C631.3428,970.18274,630.9414,970.12,630.7325,969.8338L630.7325,969.8338L535.2269,838.9838L536.25336,838.99725L535.9508,839.38983C535.7345,839.6705,535.3316,839.72266,535.05096,839.50635C534.7703,839.29004,534.71814,838.88715,534.93445,838.6065 Z"/> </g> </g> </svg>